<?xml version="1.0" encoding="UTF-8" standalone="no"?>
<!-- Created with Inkscape (http://www.inkscape.org/) -->

<svg
   xmlns:dc="http://purl.org/dc/elements/1.1/"
   xmlns:cc="http://creativecommons.org/ns#"
   xmlns:rdf="http://www.w3.org/1999/02/22-rdf-syntax-ns#"
   xmlns:svg="http://www.w3.org/2000/svg"
   xmlns="http://www.w3.org/2000/svg"
   xmlns:sodipodi="http://sodipodi.sourceforge.net/DTD/sodipodi-0.dtd"
   xmlns:inkscape="http://www.inkscape.org/namespaces/inkscape"
   width="480"
   height="80"
   viewBox="0 0 127 21.166667"
   version="1.1"
   id="svg8"
   inkscape:version="0.92.3 (2405546, 2018-03-11)"
   sodipodi:docname="logo(web).svg">
  <defs
     id="defs2" />
  <sodipodi:namedview
     id="base"
     pagecolor="#ffffff"
     bordercolor="#666666"
     borderopacity="1.0"
     inkscape:pageopacity="0.0"
     inkscape:pageshadow="2"
     inkscape:zoom="11.2"
     inkscape:cx="84.9103"
     inkscape:cy="16.459067"
     inkscape:document-units="mm"
     inkscape:current-layer="flowRoot14"
     showgrid="false"
     inkscape:window-width="3840"
     inkscape:window-height="2160"
     inkscape:window-x="0"
     inkscape:window-y="0"
     inkscape:window-maximized="0"
     units="px" />
  <metadata
     id="metadata5">
    <rdf:RDF>
      <cc:Work
         rdf:about="">
        <dc:format>image/svg+xml</dc:format>
        <dc:type
           rdf:resource="http://purl.org/dc/dcmitype/StillImage" />
        <dc:title></dc:title>
      </cc:Work>
    </rdf:RDF>
  </metadata>
  <g
     inkscape:label="Layer 1"
     inkscape:groupmode="layer"
     id="layer1"
     transform="translate(0,-275.83332)">
    <g
       aria-label="Erik
Natanael
Gustafsson."
       transform="matrix(0.0768818,0,0,0.0768818,-8.2863375,241.01398)"
       style="font-style:normal;font-weight:normal;font-size:40px;line-height:1.25;font-family:sans-serif;letter-spacing:0px;word-spacing:0px;fill:#000000;fill-opacity:1;stroke:none"
       id="flowRoot14">
      <path
         d="m 116.31096,515.31476 h 34.39636 v -5.87053 h -27.45095 v -19.67868 h 22.48992 v -5.87054 H 123.25637 V 466.8622 h 26.6241 v -5.78786 h -33.56951 z"
         style="font-style:normal;font-variant:normal;font-weight:normal;font-stretch:normal;font-size:74.66666412px;font-family:'Source Code Pro';-inkscape-font-specification:'Source Code Pro';fill:#ffffff;stroke:none;stroke-width:1.1073693"
         id="path179"
         inkscape:connector-curvature="0" />
      <path
         d="m 168.53467,515.31476 h 6.78005 v -23.56482 c 4.79566,-8.35103 10.50081,-11.49301 16.53671,-11.49301 3.14198,0 4.63029,0.41342 7.44152,1.40563 l 1.571,-5.87054 c -2.48051,-1.24025 -4.96103,-1.65367 -7.93763,-1.65367 -7.44152,0 -13.72547,4.05149 -17.94234,10.50081 h -0.24804 l -0.57879,-9.5086 h -5.62248 z"
         style="font-style:normal;font-variant:normal;font-weight:normal;font-stretch:normal;font-size:74.66666412px;font-family:'Source Code Pro';-inkscape-font-specification:'Source Code Pro';fill:#ffffff;stroke:none;stroke-width:1.1073693"
         id="path181"
         inkscape:connector-curvature="0" />
      <path
         d="m 232.16871,515.31476 h 6.78005 v -40.1842 h -25.46653 v 5.53979 h 18.68648 z m 2.64587,-48.61793 c 3.0593,0 5.45712,-2.06709 5.45712,-5.29175 0,-3.14197 -2.39782,-5.29175 -5.45712,-5.29175 -3.05928,0 -5.4571,2.14978 -5.4571,5.29175 0,3.22466 2.39782,5.29175 5.4571,5.29175 z"
         style="font-style:normal;font-variant:normal;font-weight:normal;font-stretch:normal;font-size:74.66666412px;font-family:'Source Code Pro';-inkscape-font-specification:'Source Code Pro';fill:#ffffff;stroke:none;stroke-width:1.1073693"
         id="path183"
         inkscape:connector-curvature="0" />
      <path
         d="m 264.38301,515.31476 h 6.78006 v -10.91423 l 9.50861,-9.34324 14.80035,20.25747 h 7.60689 l -18.19038,-24.39164 16.0406,-15.79256 h -7.77225 l -21.66309,21.16698 h -0.33073 v -39.85347 h -6.78006 z"
         style="font-style:normal;font-variant:normal;font-weight:normal;font-stretch:normal;font-size:74.66666412px;font-family:'Source Code Pro';-inkscape-font-specification:'Source Code Pro';fill:#ffffff;stroke:none;stroke-width:1.1073693"
         id="path185"
         inkscape:connector-curvature="0" />
      <path
         d="m 113.66507,618.6692 h 6.6147 v -28.36046 c 0,-5.62248 -0.66147,-11.41033 -0.90953,-16.95012 h 0.16537 l 5.20906,11.24496 17.36356,34.06562 h 7.60688 v -54.24041 h -6.61468 v 28.11241 c 0,5.70516 0.66147,11.82374 0.90951,17.19818 h -0.16536 l -5.20906,-11.24496 -17.36356,-34.06563 h -7.60689 z"
         style="font-style:normal;font-variant:normal;font-weight:normal;font-stretch:normal;font-size:74.66666412px;font-family:'Source Code Pro';-inkscape-font-specification:'Source Code Pro';fill:#ffffff;stroke:none;stroke-width:1.1073693"
         id="path187"
         inkscape:connector-curvature="0" />
      <path
         d="m 176.80303,619.66141 c 5.70517,0 11.41033,-2.97661 15.87524,-6.44931 h 0.24805 l 0.57878,5.4571 h 5.53981 v -24.6397 c 0,-10.00472 -5.29175,-16.53671 -16.28867,-16.53671 -7.0281,0 -13.80815,3.14198 -17.85965,5.78784 l 2.64587,4.63029 c 3.72077,-2.31515 8.84714,-4.79565 14.05621,-4.79565 7.77224,0 10.50081,4.63028 10.66619,10.08739 -20.75359,1.65368 -29.10462,6.03591 -29.10462,15.04842 0,7.19346 6.11857,11.41033 13.64279,11.41033 z m 1.81904,-5.45712 c -4.6303,0 -8.84715,-1.90173 -8.84715,-6.44932 0,-5.29175 5.29176,-8.68176 22.48994,-10.0874 v 10.58351 c -4.5476,3.80344 -9.0952,5.95321 -13.64279,5.95321 z"
         style="font-style:normal;font-variant:normal;font-weight:normal;font-stretch:normal;font-size:74.66666412px;font-family:'Source Code Pro';-inkscape-font-specification:'Source Code Pro';fill:#ffffff;stroke:none;stroke-width:1.1073693"
         id="path189"
         inkscape:connector-curvature="0" />
      <path
         d="m 238.61803,619.66141 c 5.0437,0 8.92983,-1.07488 12.5679,-2.39783 l -1.4883,-4.96102 c -2.89392,1.07489 -5.87052,1.81905 -9.67397,1.81905 -7.77226,0 -10.17008,-3.80344 -10.17008,-10.99692 v -19.09991 h 19.76136 v -5.53979 h -19.76136 v -12.89864 h -5.62249 l -0.90951,12.89864 -11.57571,0.41342 v 5.12637 h 11.32765 v 19.01723 c 0,9.92203 3.80344,16.6194 15.54451,16.6194 z"
         style="font-style:normal;font-variant:normal;font-weight:normal;font-stretch:normal;font-size:74.66666412px;font-family:'Source Code Pro';-inkscape-font-specification:'Source Code Pro';fill:#ffffff;stroke:none;stroke-width:1.1073693"
         id="path191"
         inkscape:connector-curvature="0" />
      <path
         d="m 275.95871,619.66141 c 5.70516,0 11.41034,-2.97661 15.87524,-6.44931 h 0.24806 l 0.57877,5.4571 h 5.53981 v -24.6397 c 0,-10.00472 -5.29175,-16.53671 -16.28865,-16.53671 -7.02812,0 -13.80817,3.14198 -17.85966,5.78784 l 2.64587,4.63029 c 3.72075,-2.31515 8.84714,-4.79565 14.0562,-4.79565 7.77226,0 10.50082,4.63028 10.66618,10.08739 -20.75356,1.65368 -29.10461,6.03591 -29.10461,15.04842 0,7.19346 6.11859,11.41033 13.64279,11.41033 z m 1.81904,-5.45712 c -4.63028,0 -8.84714,-1.90173 -8.84714,-6.44932 0,-5.29175 5.29175,-8.68176 22.48992,-10.0874 v 10.58351 c -4.54758,3.80344 -9.09519,5.95321 -13.64278,5.95321 z"
         style="font-style:normal;font-variant:normal;font-weight:normal;font-stretch:normal;font-size:74.66666412px;font-family:'Source Code Pro';-inkscape-font-specification:'Source Code Pro';fill:#ffffff;stroke:none;stroke-width:1.1073693"
         id="path193"
         inkscape:connector-curvature="0" />
      <path
         d="m 312.88597,618.6692 h 6.78004 v -28.02972 c 4.71296,-4.87834 7.93763,-7.27616 12.73327,-7.27616 6.61468,0 9.26057,3.63807 9.26057,11.24497 v 24.06091 h 6.78004 v -24.97044 c 0,-10.58349 -4.38222,-16.20597 -13.89084,-16.20597 -6.28394,0 -10.91423,3.39002 -15.13109,7.85494 h -0.33073 l -0.57879,-6.86274 h -5.62247 z"
         style="font-style:normal;font-variant:normal;font-weight:normal;font-stretch:normal;font-size:74.66666412px;font-family:'Source Code Pro';-inkscape-font-specification:'Source Code Pro';fill:#ffffff;stroke:none;stroke-width:1.1073693"
         id="path195"
         inkscape:connector-curvature="0" />
      <path
         d="m 375.11438,619.66141 c 5.70517,0 11.41033,-2.97661 15.87525,-6.44931 h 0.24805 l 0.57879,5.4571 h 5.5398 v -24.6397 c 0,-10.00472 -5.29176,-16.53671 -16.28867,-16.53671 -7.0281,0 -13.80815,3.14198 -17.85965,5.78784 l 2.64588,4.63029 c 3.72076,-2.31515 8.84714,-4.79565 14.0562,-4.79565 7.77226,0 10.50083,4.63028 10.66618,10.08739 -20.75358,1.65368 -29.10461,6.03591 -29.10461,15.04842 0,7.19346 6.11858,11.41033 13.64278,11.41033 z m 1.81905,-5.45712 c -4.63028,0 -8.84715,-1.90173 -8.84715,-6.44932 0,-5.29175 5.29174,-8.68176 22.48993,-10.0874 v 10.58351 c -4.54759,3.80344 -9.09518,5.95321 -13.64278,5.95321 z"
         style="font-style:normal;font-variant:normal;font-weight:normal;font-stretch:normal;font-size:74.66666412px;font-family:'Source Code Pro';-inkscape-font-specification:'Source Code Pro';fill:#ffffff;stroke:none;stroke-width:1.1073693"
         id="path197"
         inkscape:connector-curvature="0" />
      <path
         d="m 431.63766,619.66141 c 6.44932,0 11.5757,-2.14979 15.5445,-4.79565 l -2.48049,-4.46492 c -3.63808,2.31515 -7.44152,3.80345 -12.23718,3.80345 -8.35103,0 -14.80036,-4.63029 -15.6272,-13.72547 h 31.66782 c 0.16536,-1.0749 0.33073,-2.5632 0.33073,-4.13417 0,-11.32766 -6.78004,-18.85186 -18.35576,-18.85186 -10.74885,0 -20.50551,7.93762 -20.50551,21.00163 0,13.39473 9.59129,21.16699 21.66309,21.16699 z m -0.99221,-36.79419 c 6.86274,0 11.41035,4.0515 11.98912,12.31985 h -25.63191 c 1.24027,-7.93762 7.02811,-12.31985 13.64279,-12.31985 z"
         style="font-style:normal;font-variant:normal;font-weight:normal;font-stretch:normal;font-size:74.66666412px;font-family:'Source Code Pro';-inkscape-font-specification:'Source Code Pro';fill:#ffffff;stroke:none;stroke-width:1.1073693"
         id="path199"
         inkscape:connector-curvature="0" />
      <path
         d="m 487.58211,619.66141 c 4.38223,0 7.02811,-0.82684 10.74887,-2.39783 l -1.73635,-5.04369 c -2.72857,1.24025 -5.20907,1.81903 -7.52421,1.81903 -4.79564,0 -7.93762,-2.48051 -7.93762,-8.35104 V 559.7985 h -21.08432 v 5.53981 h 14.30427 v 39.85347 c 0,9.50862 4.71297,14.46963 13.22936,14.46963 z"
         style="font-style:normal;font-variant:normal;font-weight:normal;font-stretch:normal;font-size:74.66666412px;font-family:'Source Code Pro';-inkscape-font-specification:'Source Code Pro';fill:#ffffff;stroke:none;stroke-width:1.1073693"
         id="path201"
         inkscape:connector-curvature="0" />
      <path
         d="m 134.74938,723.01584 c 7.02811,0 12.81596,-2.81124 16.20598,-6.28394 v -22.82068 h -17.19818 v 5.70517 h 10.83155 v 14.13889 c -2.0671,1.98441 -5.62249,3.22466 -9.42592,3.22466 -10.66619,0 -16.70208,-8.59909 -16.70208,-22.24188 0,-13.47742 6.69736,-21.91114 16.86745,-21.91114 5.20906,0 8.43372,2.14978 11.07958,4.96101 l 3.88614,-4.38223 c -3.0593,-3.22465 -7.77227,-6.61467 -14.96572,-6.61467 -14.05622,0 -24.06093,10.58348 -24.06093,28.11239 0,17.6943 9.83934,28.11242 23.48213,28.11242 z"
         style="font-style:normal;font-variant:normal;font-weight:normal;font-stretch:normal;font-size:74.66666412px;font-family:'Source Code Pro';-inkscape-font-specification:'Source Code Pro';fill:#ffffff;stroke:none;stroke-width:1.1073693"
         id="path203"
         inkscape:connector-curvature="0" />
      <path
         d="m 176.80303,723.01584 c 6.20127,0 10.91423,-3.30734 14.96572,-8.0203 h 0.33073 l 0.57879,7.0281 h 5.53981 v -40.18421 h -6.78007 v 27.86437 c -4.4649,5.20906 -7.85493,7.44151 -12.48521,7.44151 -6.69738,0 -9.26056,-3.63807 -9.26056,-11.24497 v -24.06091 h -6.86274 v 24.97043 c 0,10.58351 4.38223,16.20598 13.97353,16.20598 z"
         style="font-style:normal;font-variant:normal;font-weight:normal;font-stretch:normal;font-size:74.66666412px;font-family:'Source Code Pro';-inkscape-font-specification:'Source Code Pro';fill:#ffffff;stroke:none;stroke-width:1.1073693"
         id="path205"
         inkscape:connector-curvature="0" />
      <path
         d="m 231.67261,723.01584 c 11.49302,0 17.85966,-5.45711 17.85966,-11.98911 0,-6.11858 -3.22467,-9.50862 -16.6194,-12.40254 -8.18568,-1.73635 -11.65838,-3.22466 -11.65838,-6.69736 0,-3.0593 2.39782,-5.78786 9.26055,-5.78786 5.12639,0 9.75666,1.65368 13.47743,4.21687 l 3.30734,-4.38224 c -3.9688,-2.72856 -10.08741,-5.12637 -16.20598,-5.12637 -10.99691,0 -16.70208,4.961 -16.70208,11.41033 0,6.0359 5.29174,9.59128 15.70987,11.74107 10.91423,2.23245 12.56791,4.38222 12.56791,7.44152 0,3.39002 -3.39003,6.28394 -10.17009,6.28394 -7.44152,0 -12.81595,-2.14976 -17.44622,-5.45711 l -3.14197,4.46492 c 4.87832,3.39002 11.90644,6.28394 19.76136,6.28394 z"
         style="font-style:normal;font-variant:normal;font-weight:normal;font-stretch:normal;font-size:74.66666412px;font-family:'Source Code Pro';-inkscape-font-specification:'Source Code Pro';fill:#ffffff;stroke:none;stroke-width:1.1073693"
         id="path207"
         inkscape:connector-curvature="0" />
      <path
         d="m 288.19587,723.01584 c 5.04371,0 8.92983,-1.07488 12.56791,-2.39781 l -1.48829,-4.96103 c -2.89394,1.0749 -5.87055,1.81904 -9.67399,1.81904 -7.77226,0 -10.17008,-3.80343 -10.17008,-10.99691 v -19.0999 h 19.76137 v -5.5398 h -19.76137 v -12.89864 h -5.62248 l -0.90952,12.89864 -11.57569,0.41341 v 5.12639 h 11.32764 v 19.01722 c 0,9.92202 3.80344,16.61939 15.5445,16.61939 z"
         style="font-style:normal;font-variant:normal;font-weight:normal;font-stretch:normal;font-size:74.66666412px;font-family:'Source Code Pro';-inkscape-font-specification:'Source Code Pro';fill:#ffffff;stroke:none;stroke-width:1.1073693"
         id="path209"
         inkscape:connector-curvature="0" />
      <path
         d="m 325.53656,723.01584 c 5.70515,0 11.41032,-2.9766 15.87524,-6.44931 h 0.24805 l 0.57878,5.45711 h 5.53979 v -24.63971 c 0,-10.0047 -5.29175,-16.5367 -16.28865,-16.5367 -7.02811,0 -13.80816,3.14197 -17.85965,5.78784 l 2.64588,4.63029 c 3.72075,-2.31514 8.84713,-4.79566 14.05619,-4.79566 7.77226,0 10.50082,4.63029 10.66618,10.08741 -20.75357,1.65366 -29.1046,6.0359 -29.1046,15.0484 0,7.19348 6.11858,11.41033 13.64279,11.41033 z m 1.81902,-5.45711 c -4.63027,0 -8.84714,-1.90173 -8.84714,-6.44932 0,-5.29175 5.29175,-8.68177 22.48993,-10.08738 v 10.58348 c -4.54759,3.80345 -9.09519,5.95322 -13.64279,5.95322 z"
         style="font-style:normal;font-variant:normal;font-weight:normal;font-stretch:normal;font-size:74.66666412px;font-family:'Source Code Pro';-inkscape-font-specification:'Source Code Pro';fill:#ffffff;stroke:none;stroke-width:1.1073693"
         id="path211"
         inkscape:connector-curvature="0" />
      <path
         d="m 374.78366,722.02364 h 6.69737 v -34.64441 h 16.86745 v -5.5398 h -16.86745 v -3.63808 c 0,-6.53201 2.9766,-10.50082 10.17008,-10.50082 3.4727,0 6.03589,0.41343 9.34323,1.90173 l 1.571,-5.12638 c -3.80346,-1.57097 -7.60691,-2.31514 -11.57571,-2.31514 -11.0796,0 -16.20597,6.44932 -16.20597,16.28867 v 3.39002 l -11.49303,0.41341 v 5.12639 h 11.49303 z"
         style="font-style:normal;font-variant:normal;font-weight:normal;font-stretch:normal;font-size:74.66666412px;font-family:'Source Code Pro';-inkscape-font-specification:'Source Code Pro';fill:#ffffff;stroke:none;stroke-width:1.1073693"
         id="path213"
         inkscape:connector-curvature="0" />
      <path
         d="m 429.98398,723.01584 c 11.49303,0 17.85965,-5.45711 17.85965,-11.98911 0,-6.11858 -3.22466,-9.50862 -16.61939,-12.40254 -8.18568,-1.73635 -11.65838,-3.22466 -11.65838,-6.69736 0,-3.0593 2.39783,-5.78786 9.26056,-5.78786 5.12638,0 9.75665,1.65368 13.47742,4.21687 l 3.30734,-4.38224 c -3.96881,-2.72856 -10.08739,-5.12637 -16.20598,-5.12637 -10.99691,0 -16.70208,4.961 -16.70208,11.41033 0,6.0359 5.29175,9.59128 15.70988,11.74107 10.91424,2.23245 12.5679,4.38222 12.5679,7.44152 0,3.39002 -3.39001,6.28394 -10.17008,6.28394 -7.44152,0 -12.81595,-2.14976 -17.44623,-5.45711 l -3.14198,4.46492 c 4.87833,3.39002 11.90644,6.28394 19.76137,6.28394 z"
         style="font-style:normal;font-variant:normal;font-weight:normal;font-stretch:normal;font-size:74.66666412px;font-family:'Source Code Pro';-inkscape-font-specification:'Source Code Pro';fill:#ffffff;stroke:none;stroke-width:1.1073693"
         id="path215"
         inkscape:connector-curvature="0" />
      <path
         d="m 479.56181,723.01584 c 11.49301,0 17.85966,-5.45711 17.85966,-11.98911 0,-6.11858 -3.22467,-9.50862 -16.6194,-12.40254 -8.18568,-1.73635 -11.65839,-3.22466 -11.65839,-6.69736 0,-3.0593 2.39782,-5.78786 9.26056,-5.78786 5.12638,0 9.75666,1.65368 13.47743,4.21687 l 3.30733,-4.38224 c -3.9688,-2.72856 -10.0874,-5.12637 -16.20598,-5.12637 -10.99692,0 -16.70208,4.961 -16.70208,11.41033 0,6.0359 5.29175,9.59128 15.70988,11.74107 10.91424,2.23245 12.5679,4.38222 12.5679,7.44152 0,3.39002 -3.39001,6.28394 -10.17009,6.28394 -7.44151,0 -12.81594,-2.14976 -17.44622,-5.45711 l -3.14198,4.46492 c 4.87834,3.39002 11.90644,6.28394 19.76138,6.28394 z"
         style="font-style:normal;font-variant:normal;font-weight:normal;font-stretch:normal;font-size:74.66666412px;font-family:'Source Code Pro';-inkscape-font-specification:'Source Code Pro';fill:#ffffff;stroke:none;stroke-width:1.1073693"
         id="path217"
         inkscape:connector-curvature="0" />
      <path
         d="m 528.31282,723.01584 c 10.58351,0 19.84407,-7.68958 19.84407,-21.00162 0,-13.47742 -9.26056,-21.16699 -19.84407,-21.16699 -10.58349,0 -19.84406,7.68957 -19.84406,21.16699 0,13.31204 9.26057,21.00162 19.84406,21.00162 z m 0,-5.62247 c -7.68957,0 -12.81595,-6.20128 -12.81595,-15.37915 0,-9.26055 5.12638,-15.54452 12.81595,-15.54452 7.68958,0 12.81597,6.28397 12.81597,15.54452 0,9.17787 -5.12639,15.37915 -12.81597,15.37915 z"
         style="font-style:normal;font-variant:normal;font-weight:normal;font-stretch:normal;font-size:74.66666412px;font-family:'Source Code Pro';-inkscape-font-specification:'Source Code Pro';fill:#ffffff;stroke:none;stroke-width:1.1073693"
         id="path219"
         inkscape:connector-curvature="0" />
      <path
         d="m 560.77519,722.02364 h 6.78004 v -28.02972 c 4.71297,-4.87834 7.93762,-7.27616 12.73327,-7.27616 6.61469,0 9.26057,3.63808 9.26057,11.24496 v 24.06092 h 6.78005 v -24.97043 c 0,-10.58351 -4.38223,-16.20598 -13.89084,-16.20598 -6.28395,0 -10.91425,3.39002 -15.1311,7.85492 h -0.33073 l -0.57878,-6.86272 h -5.62248 z"
         style="font-style:normal;font-variant:normal;font-weight:normal;font-stretch:normal;font-size:74.66666412px;font-family:'Source Code Pro';-inkscape-font-specification:'Source Code Pro';fill:#ffffff;stroke:none;stroke-width:1.1073693"
         id="path221"
         inkscape:connector-curvature="0" />
      <path
         d="m 627.4685,723.01584 c 3.72076,0 6.69737,-2.81124 6.69737,-6.94541 0,-4.21687 -2.97661,-7.02811 -6.69737,-7.02811 -3.72076,0 -6.69737,2.81124 -6.69737,7.02811 0,4.13417 2.97661,6.94541 6.69737,6.94541 z"
         style="font-style:normal;font-variant:normal;font-weight:normal;font-stretch:normal;font-size:74.66666412px;font-family:'Source Code Pro';-inkscape-font-specification:'Source Code Pro';fill:#ffffff;stroke:none;stroke-width:1.1073693"
         id="path223"
         inkscape:connector-curvature="0" />
    </g>
  </g>
</svg>
